<svg version="1.1" xmlns="http://www.w3.org/2000/svg" xmlns:xlink="http://www.w3.org/1999/xlink"
    width="1190" height="894">
    <defs>
        <clipPath id="qfmcNqiNoEde">
            <path fill="none" stroke="none" d=" M 0 0 L 1190 0 L 1190 894 L 0 894 L 0 0 Z" />
        </clipPath>
    </defs>
    <g transform="scale(1,1)" clip-path="url(#qfmcNqiNoEde)">
        <g>
            <path fill="none" stroke="rgb(180,179,186)" paint-order="fill stroke markers"
                d=" M 72.5 0.5 L 72.5 894.5 M 72.5 0.5 L 72.5 894.5 M 163.5 0.5 L 163.5 894.5 M 254.5 0.5 L 254.5 894.5 M 345.5 0.5 L 345.5 894.5 M 436.5 0.5 L 436.5 894.5 M 527.5 0.5 L 527.5 894.5 M 618.5 0.5 L 618.5 894.5 M 709.5 0.5 L 709.5 894.5 M 800.5 0.5 L 800.5 894.5 M 891.5 0.5 L 891.5 894.5 M 981.5 0.5 L 981.5 894.5 M 1072.5 0.5 L 1072.5 894.5 M 1163.5 0.5 L 1163.5 894.5"
                stroke-opacity="1" stroke-linecap="round" stroke-linejoin="round"
                stroke-miterlimit="10" />
            <path fill="none" stroke="rgb(180,179,186)" paint-order="fill stroke markers" d=""
                stroke-opacity="0.23529411764705882" stroke-linecap="round" stroke-linejoin="round"
                stroke-miterlimit="10" />
            <path fill="none" stroke="rgb(180,179,186)" paint-order="fill stroke markers"
                d=" M 0.5 86.5 L 1190.5 86.5 M 0.5 86.5 L 1190.5 86.5 M 0.5 177.5 L 1190.5 177.5 M 0.5 268.5 L 1190.5 268.5 M 0.5 359.5 L 1190.5 359.5 M 0.5 450.5 L 1190.5 450.5 M 0.5 541.5 L 1190.5 541.5 M 0.5 632.5 L 1190.5 632.5 M 0.5 723.5 L 1190.5 723.5 M 0.5 814.5 L 1190.5 814.5"
                stroke-opacity="1" stroke-linecap="round" stroke-linejoin="round"
                stroke-miterlimit="10" />
            <path fill="none" stroke="rgb(180,179,186)" paint-order="fill stroke markers" d=""
                stroke-opacity="0.23529411764705882" stroke-linecap="round" stroke-linejoin="round"
                stroke-miterlimit="10" />
            <path fill="none" stroke="rgb(51,0,0)" paint-order="fill stroke markers"
                d=" M 337.3960535870502 856.4746556907548 L 442.96812682488866 597.5372431156011"
                stroke-opacity="0.8" stroke-linecap="round" stroke-linejoin="round"
                stroke-miterlimit="10" stroke-width="2.5" />
            <path fill="none" stroke="rgb(51,0,0)" paint-order="fill stroke markers"
                d=" M 442.96812682488866 597.5372431156011 L 735.4502043232048 765.0925565478583"
                stroke-opacity="0.8" stroke-linecap="round" stroke-linejoin="round"
                stroke-miterlimit="10" stroke-width="2.5" />
            <path fill="none" stroke="rgb(51,0,0)" paint-order="fill stroke markers"
                d=" M 735.4502043232048 765.0925565478583 L 337.3960535870502 856.4746556907548"
                stroke-opacity="0.8" stroke-linecap="round" stroke-linejoin="round"
                stroke-miterlimit="10" stroke-width="2.5" />
            <path fill="none" stroke="rgb(51,0,0)" paint-order="fill stroke markers"
                d=" M 337.3960535870502 856.4746556907548 L 49.912729497464056 439.0715863855226"
                stroke-opacity="0.8" stroke-linecap="round" stroke-linejoin="round"
                stroke-miterlimit="10" stroke-width="2.5" />
            <path fill="none" stroke="rgb(51,0,0)" paint-order="fill stroke markers"
                d=" M 49.912729497464056 439.0715863855226 L 442.96812682488866 597.5372431156011"
                stroke-opacity="0.8" stroke-linecap="round" stroke-linejoin="round"
                stroke-miterlimit="10" stroke-width="2.5" />
            <path fill="none" stroke="rgb(51,0,0)" paint-order="fill stroke markers"
                d=" M 442.96812682488866 597.5372431156011 L 337.3960535870502 856.4746556907548"
                stroke-opacity="0.8" stroke-linecap="round" stroke-linejoin="round"
                stroke-miterlimit="10" stroke-width="2.5" />
            <path fill="none" stroke="rgb(51,0,0)" paint-order="fill stroke markers"
                d=" M 404.96660589494877 257.5236347950852 L 49.912729497464056 439.0715863855226"
                stroke-opacity="0.8" stroke-linecap="round" stroke-linejoin="round"
                stroke-miterlimit="10" stroke-width="2.5" />
            <path fill="none" stroke="rgb(51,0,0)" paint-order="fill stroke markers"
                d=" M 49.912729497464056 439.0715863855226 L 442.96812682488866 597.5372431156011"
                stroke-opacity="0.8" stroke-linecap="round" stroke-linejoin="round"
                stroke-miterlimit="10" stroke-width="2.5" />
            <path fill="none" stroke="rgb(51,0,0)" paint-order="fill stroke markers"
                d=" M 442.96812682488866 597.5372431156011 L 404.96660589494877 257.5236347950852"
                stroke-opacity="0.8" stroke-linecap="round" stroke-linejoin="round"
                stroke-miterlimit="10" stroke-width="2.5" />
            <path fill="none" stroke="rgb(51,0,0)" paint-order="fill stroke markers"
                d=" M 404.96660589494877 257.5236347950852 L 816.9830959774561 451.5313995426737"
                stroke-opacity="0.8" stroke-linecap="round" stroke-linejoin="round"
                stroke-miterlimit="10" stroke-width="2.5" />
            <path fill="none" stroke="rgb(51,0,0)" paint-order="fill stroke markers"
                d=" M 816.9830959774561 451.5313995426737 L 442.96812682488866 597.5372431156011"
                stroke-opacity="0.8" stroke-linecap="round" stroke-linejoin="round"
                stroke-miterlimit="10" stroke-width="2.5" />
            <path fill="none" stroke="rgb(51,0,0)" paint-order="fill stroke markers"
                d=" M 442.96812682488866 597.5372431156011 L 404.96660589494877 257.5236347950852"
                stroke-opacity="0.8" stroke-linecap="round" stroke-linejoin="round"
                stroke-miterlimit="10" stroke-width="2.5" />
            <path fill="none" stroke="rgb(51,0,0)" paint-order="fill stroke markers"
                d=" M 735.4502043232048 765.0925565478583 L 442.96812682488866 597.5372431156011"
                stroke-opacity="0.8" stroke-linecap="round" stroke-linejoin="round"
                stroke-miterlimit="10" stroke-width="2.5" />
            <path fill="none" stroke="rgb(51,0,0)" paint-order="fill stroke markers"
                d=" M 442.96812682488866 597.5372431156011 L 816.9830959774561 451.5313995426737"
                stroke-opacity="0.8" stroke-linecap="round" stroke-linejoin="round"
                stroke-miterlimit="10" stroke-width="2.5" />
            <path fill="none" stroke="rgb(51,0,0)" paint-order="fill stroke markers"
                d=" M 816.9830959774561 451.5313995426737 L 735.4502043232048 765.0925565478583"
                stroke-opacity="0.8" stroke-linecap="round" stroke-linejoin="round"
                stroke-miterlimit="10" stroke-width="2.5" />
            <path fill="none" stroke="rgb(51,0,0)" paint-order="fill stroke markers"
                d=" M 735.4502043232048 765.0925565478583 L 1125.5408998918492 689.7227508260297"
                stroke-opacity="0.8" stroke-linecap="round" stroke-linejoin="round"
                stroke-miterlimit="10" stroke-width="2.5" />
            <path fill="none" stroke="rgb(51,0,0)" paint-order="fill stroke markers"
                d=" M 1125.5408998918492 689.7227508260297 L 816.9830959774561 451.5313995426737"
                stroke-opacity="0.8" stroke-linecap="round" stroke-linejoin="round"
                stroke-miterlimit="10" stroke-width="2.5" />
            <path fill="none" stroke="rgb(51,0,0)" paint-order="fill stroke markers"
                d=" M 816.9830959774561 451.5313995426737 L 735.4502043232048 765.0925565478583"
                stroke-opacity="0.8" stroke-linecap="round" stroke-linejoin="round"
                stroke-miterlimit="10" stroke-width="2.5" />
            <path fill="none" stroke="rgb(51,0,0)" paint-order="fill stroke markers"
                d=" M 1140.0872705025354 289.7065174576639 L 1125.5408998918492 689.7227508260297"
                stroke-opacity="0.8" stroke-linecap="round" stroke-linejoin="round"
                stroke-miterlimit="10" stroke-width="2.5" />
            <path fill="none" stroke="rgb(51,0,0)" paint-order="fill stroke markers"
                d=" M 1125.5408998918492 689.7227508260297 L 816.9830959774561 451.5313995426737"
                stroke-opacity="0.8" stroke-linecap="round" stroke-linejoin="round"
                stroke-miterlimit="10" stroke-width="2.5" />
            <path fill="none" stroke="rgb(51,0,0)" paint-order="fill stroke markers"
                d=" M 816.9830959774561 451.5313995426737 L 1140.0872705025354 289.7065174576639"
                stroke-opacity="0.8" stroke-linecap="round" stroke-linejoin="round"
                stroke-miterlimit="10" stroke-width="2.5" />
            <path fill="none" stroke="rgb(51,0,0)" paint-order="fill stroke markers"
                d=" M 1140.0872705025354 289.7065174576639 L 898.0203916928369 121.88635509190118"
                stroke-opacity="0.8" stroke-linecap="round" stroke-linejoin="round"
                stroke-miterlimit="10" stroke-width="2.5" />
            <path fill="none" stroke="rgb(51,0,0)" paint-order="fill stroke markers"
                d=" M 898.0203916928369 121.88635509190118 L 816.9830959774561 451.5313995426737"
                stroke-opacity="0.8" stroke-linecap="round" stroke-linejoin="round"
                stroke-miterlimit="10" stroke-width="2.5" />
            <path fill="none" stroke="rgb(51,0,0)" paint-order="fill stroke markers"
                d=" M 816.9830959774561 451.5313995426737 L 1140.0872705025354 289.7065174576639"
                stroke-opacity="0.8" stroke-linecap="round" stroke-linejoin="round"
                stroke-miterlimit="10" stroke-width="2.5" />
            <path fill="none" stroke="rgb(51,0,0)" paint-order="fill stroke markers"
                d=" M 404.96660589494877 257.5236347950852 L 898.0203916928369 121.88635509190118"
                stroke-opacity="0.8" stroke-linecap="round" stroke-linejoin="round"
                stroke-miterlimit="10" stroke-width="2.5" />
            <path fill="none" stroke="rgb(51,0,0)" paint-order="fill stroke markers"
                d=" M 898.0203916928369 121.88635509190118 L 816.9830959774561 451.5313995426737"
                stroke-opacity="0.8" stroke-linecap="round" stroke-linejoin="round"
                stroke-miterlimit="10" stroke-width="2.5" />
            <path fill="none" stroke="rgb(51,0,0)" paint-order="fill stroke markers"
                d=" M 816.9830959774561 451.5313995426737 L 404.96660589494877 257.5236347950852"
                stroke-opacity="0.8" stroke-linecap="round" stroke-linejoin="round"
                stroke-miterlimit="10" stroke-width="2.5" />
            <path fill="none" stroke="rgb(51,0,0)" paint-order="fill stroke markers"
                d=" M 404.96660589494877 257.5236347950852 L 231.30544389998443 36.62457020991826"
                stroke-opacity="0.8" stroke-linecap="round" stroke-linejoin="round"
                stroke-miterlimit="10" stroke-width="2.5" />
            <path fill="none" stroke="rgb(51,0,0)" paint-order="fill stroke markers"
                d=" M 231.30544389998443 36.62457020991826 L 898.0203916928369 121.88635509190118"
                stroke-opacity="0.8" stroke-linecap="round" stroke-linejoin="round"
                stroke-miterlimit="10" stroke-width="2.5" />
            <path fill="none" stroke="rgb(51,0,0)" paint-order="fill stroke markers"
                d=" M 898.0203916928369 121.88635509190118 L 404.96660589494877 257.5236347950852"
                stroke-opacity="0.8" stroke-linecap="round" stroke-linejoin="round"
                stroke-miterlimit="10" stroke-width="2.5" />
            <path fill="none" stroke="rgb(51,0,0)" paint-order="fill stroke markers"
                d=" M 404.96660589494877 257.5236347950852 L 231.30544389998443 36.62457020991826"
                stroke-opacity="0.8" stroke-linecap="round" stroke-linejoin="round"
                stroke-miterlimit="10" stroke-width="2.5" />
            <path fill="none" stroke="rgb(51,0,0)" paint-order="fill stroke markers"
                d=" M 231.30544389998443 36.62457020991826 L 49.912729497464056 439.0715863855226"
                stroke-opacity="0.8" stroke-linecap="round" stroke-linejoin="round"
                stroke-miterlimit="10" stroke-width="2.5" />
            <path fill="none" stroke="rgb(51,0,0)" paint-order="fill stroke markers"
                d=" M 49.912729497464056 439.0715863855226 L 404.96660589494877 257.5236347950852"
                stroke-opacity="0.8" stroke-linecap="round" stroke-linejoin="round"
                stroke-miterlimit="10" stroke-width="2.5" />
            <path fill="rgb(255,255,255)" stroke="none" paint-order="stroke fill markers"
                d=" M 345.3960535870502 856.4746556907548 C 345.3960535870502 860.8929336894012 341.81433158569655 864.4746556907548 337.3960535870502 864.4746556907548 C 332.9777755884038 864.4746556907548 329.3960535870502 860.8929336894012 329.3960535870502 856.4746556907548 C 329.3960535870502 852.0563776921085 332.9777755884038 848.4746556907548 337.3960535870502 848.4746556907548 C 341.81433158569655 848.4746556907548 345.3960535870502 852.0563776921085 345.3960535870502 856.4746556907548 Z"
                fill-opacity="1" />
            <path fill="none" stroke="rgb(0,0,0)" paint-order="fill stroke markers"
                d=" M 345.3960535870502 856.4746556907548 C 345.3960535870502 860.8929336894012 341.81433158569655 864.4746556907548 337.3960535870502 864.4746556907548 C 332.9777755884038 864.4746556907548 329.3960535870502 860.8929336894012 329.3960535870502 856.4746556907548 C 329.3960535870502 852.0563776921085 332.9777755884038 848.4746556907548 337.3960535870502 848.4746556907548 C 341.81433158569655 848.4746556907548 345.3960535870502 852.0563776921085 345.3960535870502 856.4746556907548 Z"
                stroke-opacity="1" stroke-linecap="round" stroke-linejoin="round"
                stroke-miterlimit="10" />
            <path fill="rgb(255,255,255)" stroke="none" paint-order="stroke fill markers"
                d=" M 57.912729497464056 439.0715863855226 C 57.912729497464056 443.489864384169 54.3310074961104 447.0715863855226 49.912729497464056 447.0715863855226 C 45.49445149881771 447.0715863855226 41.912729497464056 443.489864384169 41.912729497464056 439.0715863855226 C 41.912729497464056 434.65330838687623 45.49445149881771 431.0715863855226 49.912729497464056 431.0715863855226 C 54.3310074961104 431.0715863855226 57.912729497464056 434.65330838687623 57.912729497464056 439.0715863855226 Z"
                fill-opacity="1" />
            <path fill="none" stroke="rgb(0,0,0)" paint-order="fill stroke markers"
                d=" M 57.912729497464056 439.0715863855226 C 57.912729497464056 443.489864384169 54.3310074961104 447.0715863855226 49.912729497464056 447.0715863855226 C 45.49445149881771 447.0715863855226 41.912729497464056 443.489864384169 41.912729497464056 439.0715863855226 C 41.912729497464056 434.65330838687623 45.49445149881771 431.0715863855226 49.912729497464056 431.0715863855226 C 54.3310074961104 431.0715863855226 57.912729497464056 434.65330838687623 57.912729497464056 439.0715863855226 Z"
                stroke-opacity="1" stroke-linecap="round" stroke-linejoin="round"
                stroke-miterlimit="10" />
            <path fill="rgb(255,255,255)" stroke="none" paint-order="stroke fill markers"
                d=" M 239.30544389998443 36.62457020991826 C 239.30544389998443 41.04284820856461 235.72372189863077 44.62457020991826 231.30544389998443 44.62457020991826 C 226.88716590133808 44.62457020991826 223.30544389998443 41.04284820856461 223.30544389998443 36.62457020991826 C 223.30544389998443 32.206292211271915 226.88716590133808 28.62457020991826 231.30544389998443 28.62457020991826 C 235.72372189863077 28.62457020991826 239.30544389998443 32.206292211271915 239.30544389998443 36.62457020991826 Z"
                fill-opacity="1" />
            <path fill="none" stroke="rgb(0,0,0)" paint-order="fill stroke markers"
                d=" M 239.30544389998443 36.62457020991826 C 239.30544389998443 41.04284820856461 235.72372189863077 44.62457020991826 231.30544389998443 44.62457020991826 C 226.88716590133808 44.62457020991826 223.30544389998443 41.04284820856461 223.30544389998443 36.62457020991826 C 223.30544389998443 32.206292211271915 226.88716590133808 28.62457020991826 231.30544389998443 28.62457020991826 C 235.72372189863077 28.62457020991826 239.30544389998443 32.206292211271915 239.30544389998443 36.62457020991826 Z"
                stroke-opacity="1" stroke-linecap="round" stroke-linejoin="round"
                stroke-miterlimit="10" />
            <path fill="rgb(255,255,255)" stroke="none" paint-order="stroke fill markers"
                d=" M 906.0203916928369 121.88635509190118 C 906.0203916928369 126.30463309054753 902.4386696914833 129.88635509190118 898.0203916928369 129.88635509190118 C 893.6021136941906 129.88635509190118 890.0203916928369 126.30463309054753 890.0203916928369 121.88635509190118 C 890.0203916928369 117.46807709325483 893.6021136941906 113.88635509190118 898.0203916928369 113.88635509190118 C 902.4386696914833 113.88635509190118 906.0203916928369 117.46807709325483 906.0203916928369 121.88635509190118 Z"
                fill-opacity="1" />
            <path fill="none" stroke="rgb(0,0,0)" paint-order="fill stroke markers"
                d=" M 906.0203916928369 121.88635509190118 C 906.0203916928369 126.30463309054753 902.4386696914833 129.88635509190118 898.0203916928369 129.88635509190118 C 893.6021136941906 129.88635509190118 890.0203916928369 126.30463309054753 890.0203916928369 121.88635509190118 C 890.0203916928369 117.46807709325483 893.6021136941906 113.88635509190118 898.0203916928369 113.88635509190118 C 902.4386696914833 113.88635509190118 906.0203916928369 117.46807709325483 906.0203916928369 121.88635509190118 Z"
                stroke-opacity="1" stroke-linecap="round" stroke-linejoin="round"
                stroke-miterlimit="10" />
            <path fill="rgb(255,255,255)" stroke="none" paint-order="stroke fill markers"
                d=" M 1148.0872705025354 289.7065174576639 C 1148.0872705025354 294.12479545631027 1144.5055485011817 297.7065174576639 1140.0872705025354 297.7065174576639 C 1135.668992503889 297.7065174576639 1132.0872705025354 294.12479545631027 1132.0872705025354 289.7065174576639 C 1132.0872705025354 285.2882394590175 1135.668992503889 281.7065174576639 1140.0872705025354 281.7065174576639 C 1144.5055485011817 281.7065174576639 1148.0872705025354 285.2882394590175 1148.0872705025354 289.7065174576639 Z"
                fill-opacity="1" />
            <path fill="none" stroke="rgb(0,0,0)" paint-order="fill stroke markers"
                d=" M 1148.0872705025354 289.7065174576639 C 1148.0872705025354 294.12479545631027 1144.5055485011817 297.7065174576639 1140.0872705025354 297.7065174576639 C 1135.668992503889 297.7065174576639 1132.0872705025354 294.12479545631027 1132.0872705025354 289.7065174576639 C 1132.0872705025354 285.2882394590175 1135.668992503889 281.7065174576639 1140.0872705025354 281.7065174576639 C 1144.5055485011817 281.7065174576639 1148.0872705025354 285.2882394590175 1148.0872705025354 289.7065174576639 Z"
                stroke-opacity="1" stroke-linecap="round" stroke-linejoin="round"
                stroke-miterlimit="10" />
            <path fill="rgb(255,255,255)" stroke="none" paint-order="stroke fill markers"
                d=" M 1133.5408998918492 689.7227508260297 C 1133.5408998918492 694.141028824676 1129.9591778904955 697.7227508260297 1125.5408998918492 697.7227508260297 C 1121.122621893203 697.7227508260297 1117.5408998918492 694.141028824676 1117.5408998918492 689.7227508260297 C 1117.5408998918492 685.3044728273834 1121.122621893203 681.7227508260297 1125.5408998918492 681.7227508260297 C 1129.9591778904955 681.7227508260297 1133.5408998918492 685.3044728273834 1133.5408998918492 689.7227508260297 Z"
                fill-opacity="1" />
            <path fill="none" stroke="rgb(0,0,0)" paint-order="fill stroke markers"
                d=" M 1133.5408998918492 689.7227508260297 C 1133.5408998918492 694.141028824676 1129.9591778904955 697.7227508260297 1125.5408998918492 697.7227508260297 C 1121.122621893203 697.7227508260297 1117.5408998918492 694.141028824676 1117.5408998918492 689.7227508260297 C 1117.5408998918492 685.3044728273834 1121.122621893203 681.7227508260297 1125.5408998918492 681.7227508260297 C 1129.9591778904955 681.7227508260297 1133.5408998918492 685.3044728273834 1133.5408998918492 689.7227508260297 Z"
                stroke-opacity="1" stroke-linecap="round" stroke-linejoin="round"
                stroke-miterlimit="10" />
            <path fill="rgb(255,255,255)" stroke="none" paint-order="stroke fill markers"
                d=" M 743.4502043232048 765.0925565478583 C 743.4502043232048 769.5108345465046 739.8684823218512 773.0925565478583 735.4502043232048 773.0925565478583 C 731.0319263245585 773.0925565478583 727.4502043232048 769.5108345465046 727.4502043232048 765.0925565478583 C 727.4502043232048 760.674278549212 731.0319263245585 757.0925565478583 735.4502043232048 757.0925565478583 C 739.8684823218512 757.0925565478583 743.4502043232048 760.674278549212 743.4502043232048 765.0925565478583 Z"
                fill-opacity="1" />
            <path fill="none" stroke="rgb(0,0,0)" paint-order="fill stroke markers"
                d=" M 743.4502043232048 765.0925565478583 C 743.4502043232048 769.5108345465046 739.8684823218512 773.0925565478583 735.4502043232048 773.0925565478583 C 731.0319263245585 773.0925565478583 727.4502043232048 769.5108345465046 727.4502043232048 765.0925565478583 C 727.4502043232048 760.674278549212 731.0319263245585 757.0925565478583 735.4502043232048 757.0925565478583 C 739.8684823218512 757.0925565478583 743.4502043232048 760.674278549212 743.4502043232048 765.0925565478583 Z"
                stroke-opacity="1" stroke-linecap="round" stroke-linejoin="round"
                stroke-miterlimit="10" />
            <path fill="rgb(255,255,255)" stroke="none" paint-order="stroke fill markers"
                d=" M 450.96812682488866 597.5372431156011 C 450.96812682488866 601.9555211142474 447.38640482353503 605.5372431156011 442.96812682488866 605.5372431156011 C 438.5498488262423 605.5372431156011 434.96812682488866 601.9555211142474 434.96812682488866 597.5372431156011 C 434.96812682488866 593.1189651169548 438.5498488262423 589.5372431156011 442.96812682488866 589.5372431156011 C 447.38640482353503 589.5372431156011 450.96812682488866 593.1189651169548 450.96812682488866 597.5372431156011 Z"
                fill-opacity="1" />
            <path fill="none" stroke="rgb(0,0,0)" paint-order="fill stroke markers"
                d=" M 450.96812682488866 597.5372431156011 C 450.96812682488866 601.9555211142474 447.38640482353503 605.5372431156011 442.96812682488866 605.5372431156011 C 438.5498488262423 605.5372431156011 434.96812682488866 601.9555211142474 434.96812682488866 597.5372431156011 C 434.96812682488866 593.1189651169548 438.5498488262423 589.5372431156011 442.96812682488866 589.5372431156011 C 447.38640482353503 589.5372431156011 450.96812682488866 593.1189651169548 450.96812682488866 597.5372431156011 Z"
                stroke-opacity="1" stroke-linecap="round" stroke-linejoin="round"
                stroke-miterlimit="10" />
            <path fill="rgb(255,255,255)" stroke="none" paint-order="stroke fill markers"
                d=" M 412.96660589494877 257.5236347950852 C 412.96660589494877 261.9419127937315 409.3848838935951 265.5236347950852 404.96660589494877 265.5236347950852 C 400.5483278963024 265.5236347950852 396.96660589494877 261.9419127937315 396.96660589494877 257.5236347950852 C 396.96660589494877 253.10535679643883 400.5483278963024 249.52363479508517 404.96660589494877 249.52363479508517 C 409.3848838935951 249.52363479508517 412.96660589494877 253.10535679643883 412.96660589494877 257.5236347950852 Z"
                fill-opacity="1" />
            <path fill="none" stroke="rgb(0,0,0)" paint-order="fill stroke markers"
                d=" M 412.96660589494877 257.5236347950852 C 412.96660589494877 261.9419127937315 409.3848838935951 265.5236347950852 404.96660589494877 265.5236347950852 C 400.5483278963024 265.5236347950852 396.96660589494877 261.9419127937315 396.96660589494877 257.5236347950852 C 396.96660589494877 253.10535679643883 400.5483278963024 249.52363479508517 404.96660589494877 249.52363479508517 C 409.3848838935951 249.52363479508517 412.96660589494877 253.10535679643883 412.96660589494877 257.5236347950852 Z"
                stroke-opacity="1" stroke-linecap="round" stroke-linejoin="round"
                stroke-miterlimit="10" />
            <path fill="rgb(255,255,255)" stroke="none" paint-order="stroke fill markers"
                d=" M 824.9830959774561 451.5313995426737 C 824.9830959774561 455.94967754132006 821.4013739761024 459.5313995426737 816.9830959774561 459.5313995426737 C 812.5648179788097 459.5313995426737 808.9830959774561 455.94967754132006 808.9830959774561 451.5313995426737 C 808.9830959774561 447.1131215440273 812.5648179788097 443.5313995426737 816.9830959774561 443.5313995426737 C 821.4013739761024 443.5313995426737 824.9830959774561 447.1131215440273 824.9830959774561 451.5313995426737 Z"
                fill-opacity="1" />
            <path fill="none" stroke="rgb(0,0,0)" paint-order="fill stroke markers"
                d=" M 824.9830959774561 451.5313995426737 C 824.9830959774561 455.94967754132006 821.4013739761024 459.5313995426737 816.9830959774561 459.5313995426737 C 812.5648179788097 459.5313995426737 808.9830959774561 455.94967754132006 808.9830959774561 451.5313995426737 C 808.9830959774561 447.1131215440273 812.5648179788097 443.5313995426737 816.9830959774561 443.5313995426737 C 821.4013739761024 443.5313995426737 824.9830959774561 447.1131215440273 824.9830959774561 451.5313995426737 Z"
                stroke-opacity="1" stroke-linecap="round" stroke-linejoin="round"
                stroke-miterlimit="10" />
            <path fill="none" stroke="rgb(51,0,0)" paint-order="fill stroke markers"
                d=" M 509.2714615783812 739.7014851180713 C 509.2714615783812 741.9106241173945 507.48060057770437 743.7014851180713 505.2714615783812 743.7014851180713 C 503.06232257905805 743.7014851180713 501.2714615783812 741.9106241173945 501.2714615783812 739.7014851180713 C 501.2714615783812 737.4923461187482 503.06232257905805 735.7014851180713 505.2714615783812 735.7014851180713 C 507.48060057770437 735.7014851180713 509.2714615783812 737.4923461187482 509.2714615783812 739.7014851180713 Z"
                stroke-opacity="1" stroke-linecap="square" stroke-miterlimit="10" stroke-width="2" />
            <path fill="none" stroke="rgb(51,0,0)" paint-order="fill stroke markers"
                d=" M 280.7589699698009 631.0278283972928 C 280.7589699698009 633.2369673966159 278.96810896912405 635.0278283972928 276.7589699698009 635.0278283972928 C 274.54983097047773 635.0278283972928 272.7589699698009 633.2369673966159 272.7589699698009 631.0278283972928 C 272.7589699698009 628.8186893979696 274.54983097047773 627.0278283972928 276.7589699698009 627.0278283972928 C 278.96810896912405 627.0278283972928 280.7589699698009 628.8186893979696 280.7589699698009 631.0278283972928 Z"
                stroke-opacity="1" stroke-linecap="square" stroke-miterlimit="10" stroke-width="2" />
            <path fill="none" stroke="rgb(51,0,0)" paint-order="fill stroke markers"
                d=" M 303.28248740576714 431.37748809873625 C 303.28248740576714 433.5866270980594 301.4916264050903 435.37748809873625 299.28248740576714 435.37748809873625 C 297.073348406444 435.37748809873625 295.28248740576714 433.5866270980594 295.28248740576714 431.37748809873625 C 295.28248740576714 429.1683490994131 297.073348406444 427.37748809873625 299.28248740576714 427.37748809873625 C 301.4916264050903 427.37748809873625 303.28248740576714 429.1683490994131 303.28248740576714 431.37748809873625 Z"
                stroke-opacity="1" stroke-linecap="square" stroke-miterlimit="10" stroke-width="2" />
            <path fill="none" stroke="rgb(51,0,0)" paint-order="fill stroke markers"
                d=" M 558.9726095657645 435.5307591511199 C 558.9726095657645 437.7398981504431 557.1817485650877 439.5307591511199 554.9726095657645 439.5307591511199 C 552.7634705664414 439.5307591511199 550.9726095657645 437.7398981504431 550.9726095657645 435.5307591511199 C 550.9726095657645 433.32162015179676 552.7634705664414 431.5307591511199 554.9726095657645 431.5307591511199 C 557.1817485650877 431.5307591511199 558.9726095657645 433.32162015179676 558.9726095657645 435.5307591511199 Z"
                stroke-opacity="1" stroke-linecap="square" stroke-miterlimit="10" stroke-width="2" />
            <path fill="none" stroke="rgb(51,0,0)" paint-order="fill stroke markers"
                d=" M 669.1338090418499 604.7203997353777 C 669.1338090418499 606.9295387347008 667.342948041173 608.7203997353777 665.1338090418499 608.7203997353777 C 662.9246700425267 608.7203997353777 661.1338090418499 606.9295387347008 661.1338090418499 604.7203997353777 C 661.1338090418499 602.5112607360545 662.9246700425267 600.7203997353777 665.1338090418499 600.7203997353777 C 667.342948041173 600.7203997353777 669.1338090418499 602.5112607360545 669.1338090418499 604.7203997353777 Z"
                stroke-opacity="1" stroke-linecap="square" stroke-miterlimit="10" stroke-width="2" />
            <path fill="none" stroke="rgb(51,0,0)" paint-order="fill stroke markers"
                d=" M 896.6580667308366 635.4489023055205 C 896.6580667308366 637.6580413048437 894.8672057301598 639.4489023055205 892.6580667308366 639.4489023055205 C 890.4489277315134 639.4489023055205 888.6580667308366 637.6580413048437 888.6580667308366 635.4489023055205 C 888.6580667308366 633.2397633061973 890.4489277315134 631.4489023055205 892.6580667308366 631.4489023055205 C 894.8672057301598 631.4489023055205 896.6580667308366 633.2397633061973 896.6580667308366 635.4489023055205 Z"
                stroke-opacity="1" stroke-linecap="square" stroke-miterlimit="10" stroke-width="2" />
            <path fill="none" stroke="rgb(51,0,0)" paint-order="fill stroke markers"
                d=" M 1031.5370887906136 476.9868892754558 C 1031.5370887906136 479.19602827477894 1029.7462277899367 480.9868892754558 1027.5370887906136 480.9868892754558 C 1025.3279497912904 480.9868892754558 1023.5370887906136 479.19602827477894 1023.5370887906136 476.9868892754558 C 1023.5370887906136 474.7777502761326 1025.3279497912904 472.9868892754558 1027.5370887906136 472.9868892754558 C 1029.7462277899367 472.9868892754558 1031.5370887906136 474.7777502761326 1031.5370887906136 476.9868892754558 Z"
                stroke-opacity="1" stroke-linecap="square" stroke-miterlimit="10" stroke-width="2" />
            <path fill="none" stroke="rgb(51,0,0)" paint-order="fill stroke markers"
                d=" M 955.6969193909428 287.70809069741296 C 955.6969193909428 289.9172296967361 953.9060583902659 291.70809069741296 951.6969193909428 291.70809069741296 C 949.4877803916196 291.70809069741296 947.6969193909428 289.9172296967361 947.6969193909428 287.70809069741296 C 947.6969193909428 285.4989516980898 949.4877803916196 283.70809069741296 951.6969193909428 283.70809069741296 C 953.9060583902659 283.70809069741296 955.6969193909428 285.4989516980898 955.6969193909428 287.70809069741296 Z"
                stroke-opacity="1" stroke-linecap="square" stroke-miterlimit="10" stroke-width="2" />
            <path fill="none" stroke="rgb(51,0,0)" paint-order="fill stroke markers"
                d=" M 710.6566978550807 276.98046314321994 C 710.6566978550807 279.1896021425431 708.8658368544038 280.98046314321994 706.6566978550807 280.98046314321994 C 704.4475588557575 280.98046314321994 702.6566978550807 279.1896021425431 702.6566978550807 276.98046314321994 C 702.6566978550807 274.7713241438968 704.4475588557575 272.98046314321994 706.6566978550807 272.98046314321994 C 708.8658368544038 272.98046314321994 710.6566978550807 274.7713241438968 710.6566978550807 276.98046314321994 Z"
                stroke-opacity="1" stroke-linecap="square" stroke-miterlimit="10" stroke-width="2" />
            <path fill="none" stroke="rgb(51,0,0)" paint-order="fill stroke markers"
                d=" M 515.4308138292567 138.6781866989681 C 515.4308138292567 140.88732569829125 513.6399528285799 142.6781866989681 511.4308138292567 142.6781866989681 C 509.22167482993353 142.6781866989681 507.4308138292567 140.88732569829125 507.4308138292567 138.6781866989681 C 507.4308138292567 136.4690476996449 509.22167482993353 134.6781866989681 511.4308138292567 134.6781866989681 C 513.6399528285799 134.6781866989681 515.4308138292567 136.4690476996449 515.4308138292567 138.6781866989681 Z"
                stroke-opacity="1" stroke-linecap="square" stroke-miterlimit="10" stroke-width="2" />
            <path fill="none" stroke="rgb(51,0,0)" paint-order="fill stroke markers"
                d=" M 232.7282597641323 244.40659713017533 C 232.7282597641323 246.6157361294985 230.93739876345546 248.40659713017533 228.7282597641323 248.40659713017533 C 226.51912076480912 248.40659713017533 224.7282597641323 246.6157361294985 224.7282597641323 244.40659713017533 C 224.7282597641323 242.19745813085214 226.51912076480912 240.40659713017533 228.7282597641323 240.40659713017533 C 230.93739876345546 240.40659713017533 232.7282597641323 242.19745813085214 232.7282597641323 244.40659713017533 Z"
                stroke-opacity="1" stroke-linecap="square" stroke-miterlimit="10" stroke-width="2" />
        </g>
    </g>
</svg>